<svg xmlns="http://www.w3.org/2000/svg" viewBox="0 0 200 80">
  <!-- Body: Compact crossover, wedge shape, angular -->
  <path d="M22,52 L28,52 L36,38 Q52,24 76,22 L124,22 Q146,24 156,32 L168,44 L178,48 L178,52 L22,52 Z" fill="white"/>
  <!-- Lower body -->
  <path d="M18,52 L182,52 L182,58 Q182,60 180,60 L20,60 Q18,60 18,58 Z" fill="white"/>
  <!-- Window -->
  <path d="M70,26 L120,26 Q138,26 150,36 L160,44 L66,44 Z" fill="#111111" opacity="0.3"/>
  <!-- Front detail -->
  <path d="M22,52 L18,48 L24,44 L34,42 L34,52 Z" fill="white"/>
  <!-- Wheel wells -->
  <path d="M40,60 Q40,48 52,48 Q64,48 64,60" fill="#111111"/>
  <path d="M142,60 Q142,48 154,48 Q166,48 166,60" fill="#111111"/>
  <!-- Wheels -->
  <circle cx="52" cy="60" r="9" fill="#111111" stroke="white" stroke-width="1.5"/>
  <circle cx="52" cy="60" r="4" fill="#333" stroke="white" stroke-width="0.8"/>
  <circle cx="154" cy="60" r="9" fill="#111111" stroke="white" stroke-width="1.5"/>
  <circle cx="154" cy="60" r="4" fill="#333" stroke="white" stroke-width="0.8"/>
</svg>
